<svg width="1099" height="183" viewBox="0 0 1099 183" fill="none" xmlns="http://www.w3.org/2000/svg">
<path d="M197.593 182.413H6.81279V142.844H197.593C206.348 142.844 213.452 135.697 213.452 126.918C213.452 118.139 206.318 110.991 197.593 110.991H55.2792C24.7935 110.999 0 86.0987 0 55.4956C0 24.8926 24.7935 0 55.2792 0H246.045V39.5692H55.2792C46.5242 39.5692 39.4201 46.7166 39.4201 55.4956C39.4201 64.2746 46.5541 71.4221 55.2792 71.4221H197.578C228.064 71.4221 252.858 96.3222 252.858 126.918C252.858 157.513 228.064 182.413 197.578 182.413L197.593 182.428V182.413Z" fill="#262624"/>
<path d="M532.401 39.5841V0H315.407C295.313 0 279.028 16.3531 279.028 36.5306V145.883C279.028 166.053 295.32 182.413 315.407 182.413H532.401V142.844H318.448V110.984H532.184V71.4146H318.448V39.5542H532.401V39.5841Z" fill="#262624"/>
<path d="M1062.64 0.0148735H882.507C862.413 0.0148735 846.128 16.3679 846.128 36.5454V182.413H885.548V110.984H1059.59V182.413H1099V36.5454C1099 16.3679 1082.71 0.0148735 1062.64 0.0148735ZM1059.59 45.2496V71.4594H885.563V39.599H1059.59V45.2571V45.2496Z" fill="#262624"/>
<path d="M565.282 71.4587V182.405H604.926V110.976H743.386L773.857 182.405H816.982L816.967 182.42L784.293 105.834C803.035 97.227 816.429 78.7184 816.952 56.8495C817.684 25.6402 792.614 0.00667191 761.688 0.00667191H565.297V39.5759H761.217C769.487 39.5759 776.703 45.7204 777.48 53.968C778.369 63.4281 770.943 71.4363 761.673 71.4363L565.282 71.4662V71.4587Z" fill="#262624"/>
</svg>
