<?xml version="1.0" encoding="utf-8"?>
<!-- Generator: Adobe Illustrator 28.1.0, SVG Export Plug-In . SVG Version: 6.00 Build 0)  -->
<svg version="1.1" id="Layer_1" xmlns="http://www.w3.org/2000/svg" xmlns:xlink="http://www.w3.org/1999/xlink" x="0px" y="0px"
	 viewBox="0 0 1520 295" style="enable-background:new 0 0 1520 295;" xml:space="preserve">
<style type="text/css">
	.st0{fill:#262624;}
</style>
<g>
	<path class="st0" d="M568.4,118.3H418.3c-9.2,0-16.7-7.5-16.7-16.8c0-9.3,7.5-16.8,16.7-16.8h201.2V43H418.3
		c-32.2,0-58.3,26.3-58.3,58.5c0,32.3,26.2,58.5,58.3,58.5h150.1c9.2,0,16.7,7.5,16.7,16.8s-7.5,16.8-16.7,16.8H367.2v41.7h201.2
		c32.2,0,58.3-26.3,58.3-58.5S600.6,118.3,568.4,118.3z"/>
	<polygon class="st0" points="568.4,235.4 568.4,235.4 568.4,235.4 	"/>
	<path class="st0" d="M654.3,81.5v115.3c0,21.3,17.2,38.5,38.4,38.5h228.9v-41.7H695.9v-33.6h225.5v-41.7H695.9V84.7h225.7V43H692.7
		C671.5,43,654.3,60.2,654.3,81.5z"/>
	<path class="st0" d="M1480.9,43h-190c-21.2,0-38.4,17.2-38.4,38.5v153.9h41.6v-75.3h183.6v75.3h41.6V81.5
		C1519.2,60.3,1502.1,43,1480.9,43z M1477.7,90.7L1477.7,90.7v27.6h-183.6V84.8h183.6V90.7z"/>
	<polygon class="st0" points="1221.8,235.4 1221.8,235.4 1221.7,235.4 	"/>
	<path class="st0" d="M1221.7,103c0.8-32.9-25.7-60-58.3-60H956.3v41.7h206.7c8.7,0,16.3,6.5,17.2,15.2c0.9,10-6.9,18.4-16.7,18.4
		l-207.2,0v117h41.8v-75.3h146.1l32.1,75.3h45.5l-34.5-80.8C1207.1,145.6,1221.2,126,1221.7,103z"/>
	<path class="st0" d="M98.5,40.6l-0.2,0.1l2.4,0.5c5.4,1.1,10.9,0,15.5-3c6.4-4.2,11.8-5.8,16.5-4.9c4.6,1,9,4.5,13.2,11l0.2,0.3h0
		c2.1,3,4.9,5.4,8.1,7c6.8,3.4,10.8,7.3,12.2,11.7c1.5,4.5,0.5,10.1-2.9,17c-2.5,4.9-2.9,10.5-1.1,15.8c1.7,5.2,5.4,9.5,10.3,11.9
		c2.9,1.5,6.1,2.2,9.2,2.2c2.2,0,4.4-0.4,6.5-1.1c10.8-3.6,16.7-15.3,13.1-26.1c-1.7-5.1-5.2-9.2-10-11.7l-0.4-0.2
		c-6.9-3.5-11-7.3-12.5-11.8c-1.5-4.5-0.5-10.1,2.9-17c2.5-4.9,2.9-10.5,1.1-15.7c-1.4-4.3-4.2-7.9-8-10.5c-0.2-0.1-0.3-0.2-0.5-0.3
		l-0.2-0.1c-2.1-1.3-4.4-2.3-6.9-2.8c-5-1-10.1-0.2-14.5,2.4V15l-1,0.7c-6.5,4.3-11.8,5.9-16.5,4.9c-4.6-1-9-4.6-13.2-11
		c-3-4.6-7.7-7.7-13.1-8.9c-5.4-1.1-10.9,0-15.5,3c-4.6,3-7.7,7.7-8.9,13.1c-1.1,5.4,0,10.9,3,15.5C90.2,36.3,94,39.2,98.5,40.6z"/>
	<path class="st0" d="M270.3,119.2L270.3,119.2c-0.7-5-3.2-9.5-7-12.7l0,0l-0.6-0.5c-6-4.8-9.2-9.4-9.8-14.2
		c-0.5-4.7,1.5-9.9,6.4-16c3.4-4.3,5-9.7,4.4-15.2c-1.3-11.3-11.5-19.5-22.8-18.2c-11.3,1.3-19.5,11.5-18.2,22.8
		c0.6,5.5,3.4,10.4,7.7,13.8c6,4.8,9.2,9.4,9.7,14.1c0.5,4.7-1.5,9.9-6.4,16l-0.1,0.2v0c-2.3,2.9-3.7,6.4-4.2,10
		c-1.2,7.5-3.6,12.5-7.3,15.3c-3.8,2.8-9.4,3.6-17,2.5c-5.5-0.8-10.9,0.5-15.3,3.8c-9.2,6.8-11.1,19.7-4.3,28.9l0.1,0.1l0,0
		c3.3,4.4,8,7.2,13.4,8c1,0.2,2.1,0.2,3.1,0.2c4.4,0,8.6-1.4,12.2-4c4.3-3.2,7.1-7.7,8-13l0.1-0.6c1.1-7.6,3.6-12.7,7.4-15.5
		c3.8-2.8,9.4-3.6,17-2.5c5.5,0.8,10.9-0.5,15.3-3.8c3.6-2.7,6.2-6.4,7.5-10.8c0.1-0.2,0.1-0.3,0.1-0.5l0.1-0.3
		c0.6-2.4,0.8-4.9,0.5-7.4L270.3,119.2z"/>
	<path class="st0" d="M238.2,189.7L238.2,189.7l-0.6,0.2c-5,2.3-8.8,6.5-10.7,11.7c-2.6,7.2-6,11.7-10.3,13.8
		c-4.3,2-9.9,1.7-17.2-0.9l-0.9-0.3v0c-3.3-1-6.8-1.2-10.1-0.5c-7.5,1.3-13,0.6-16.8-2.1c-3.9-2.7-6.4-7.7-7.8-15.3
		c-1-5.4-4-10.2-8.5-13.3c-9.3-6.5-22.2-4.2-28.7,5.1c-6.5,9.3-4.2,22.2,5.1,28.7c4.3,3,9.5,4.2,14.6,3.5v0l0.8-0.1
		c7.6-1.4,13.2-0.7,17.1,2c3.9,2.7,6.4,7.7,7.8,15.3c1,5.4,4,10.2,8.5,13.3c3.5,2.4,7.5,3.7,11.8,3.7c0.3,0,0.6,0,0.9,0
		c0.2,0,0.3,0,0.5,0l0.1,0c0.1,0,0.2,0,0.2,0c2.5-0.2,4.9-0.8,7.2-1.9c4.7-2.2,8.3-6,10.3-10.7l0,0l0.4-1c2.6-7.3,6-11.8,10.3-13.8
		c4.3-2,9.9-1.7,17.2,0.9c5.2,1.9,10.8,1.6,15.8-0.7c5-2.3,8.8-6.5,10.6-11.7c1.9-5.2,1.6-10.8-0.7-15.8
		C260.3,189.7,248.4,185.3,238.2,189.7z"/>
	<path class="st0" d="M109.8,236.4L109.8,236.4c-7.7-0.1-13-1.9-16.3-5.3c-3.3-3.4-4.8-8.8-4.7-16.6l0-0.7h0c0-3.5-1-7-2.8-10
		c-3.6-6.6-4.7-12.1-3.5-16.6c1.3-4.6,5.2-8.6,12-12.3c4.8-2.7,8.3-7.1,9.9-12.3c3.2-10.9-3.2-22.4-14.1-25.5
		c-5.3-1.5-10.9-0.9-15.7,1.8c-4.8,2.7-8.3,7-9.9,12.3c-1.4,4.9-1,10.1,1.3,14.7h0l0.6,1c3.7,6.8,4.9,12.3,3.6,16.8
		c-1.3,4.6-5.2,8.6-12,12.3c-4.8,2.7-8.3,7.1-9.9,12.3c-1.3,4.4-1.1,8.9,0.6,13.1c0.1,0.2,0.2,0.4,0.2,0.6l0.1,0.2
		c1,2.3,2.4,4.4,4.1,6.2l0.2,0.2h0c3.6,3.7,8.4,5.8,13.6,6.1l0.7,0c7.7,0.1,13.1,1.9,16.4,5.3c3.3,3.4,4.8,8.8,4.7,16.6
		c-0.1,5.5,1.9,10.7,5.8,14.7c3.8,4,9,6.2,14.5,6.3c0.1,0,0.3,0,0.4,0c5.4,0,10.4-2,14.3-5.8c4-3.8,6.2-9,6.3-14.5
		c0.1-5.5-1.9-10.7-5.8-14.7C120.5,238.8,115.3,236.5,109.8,236.4z"/>
	<path class="st0" d="M55.6,108.3l0.1,0l0,0c3.6-1,6.8-3,9.3-5.7c5.3-5.4,10.1-8.1,14.8-8.1c4.8-0.1,9.7,2.5,15.3,7.9l0.2,0.2h0
		c3.9,3.7,9.1,5.7,14.5,5.6c11.4-0.2,20.5-9.6,20.3-20.9c-0.2-11.4-9.5-20.5-20.9-20.3c-5.3,0.1-10.2,2.1-14,5.8l0,0l-0.5,0.5
		c-5.4,5.5-10.3,8.3-15,8.3c-4.8,0.1-9.7-2.5-15.3-7.9c-4-3.8-9.2-5.9-14.7-5.8c-4.5,0.1-8.8,1.6-12.4,4.4l-0.7,0.5
		c-1.9,1.6-3.5,3.5-4.7,5.7l-0.6,1h0c-2.1,4.3-2.6,9.2-1.5,13.8h0l0.2,0.9c2.1,7.4,2,13.1-0.3,17.2c-2.3,4.1-7,7.2-14.5,9.3
		c-5.3,1.5-9.7,5-12.4,9.8c-5.5,9.9-2,22.5,8,28.1c3.2,1.8,6.6,2.6,10,2.6c7.2,0,14.3-3.8,18.1-10.6c2.7-4.8,3.3-10.4,1.8-15.7
		c-2.1-7.4-2-13,0.3-17.2C43.4,113.5,48.1,110.4,55.6,108.3z"/>
	<path class="st0" d="M1511.1,283.9l-4.7-13.8h-3.2l6.5,18.1l-0.8,2c-0.2,0.5-0.4,0.8-0.8,1.1c-0.3,0.2-0.8,0.3-1.3,0.3
		c-0.3,0-0.5,0-0.8-0.1c-0.3,0-0.6-0.1-0.8-0.2v2.7c0.3,0.1,0.6,0.1,0.8,0.2c0.3,0.1,0.6,0.1,0.9,0.1c1.3,0,2.3-0.3,3-0.9
		c0.7-0.6,1.4-1.8,2.1-3.7l7.2-19.7h-3.2L1511.1,283.9z"/>
	<path class="st0" d="M1497.8,284c-0.8,0.7-1.9,1-3.2,1c-1.5,0-2.7-0.6-3.5-1.7c-0.8-1.1-1.2-2.7-1.2-4.8c0-2.1,0.4-3.7,1.3-4.8
		c0.8-1.1,2.1-1.7,3.6-1.7c1.3,0,2.3,0.3,3.1,1c0.8,0.6,1.2,1.5,1.3,2.7h2.8c-0.1-1.9-0.8-3.4-2.1-4.5c-1.3-1.1-3-1.7-5.2-1.7
		c-2.4,0-4.3,0.8-5.7,2.4c-1.4,1.6-2.1,3.9-2.1,6.7c0,2.8,0.7,5,2,6.6c1.3,1.6,3.2,2.4,5.5,2.4c2.2,0,4-0.6,5.4-1.8
		c1.3-1.2,2.1-2.8,2.2-4.9h-2.7C1499.1,282.3,1498.6,283.3,1497.8,284z"/>
	<path class="st0" d="M1482.8,271.9c-0.5-0.8-1.2-1.4-2-1.7c-0.9-0.4-2-0.6-3.2-0.6c-1.2,0-2.2,0.2-3.1,0.7
		c-0.9,0.5-1.7,1.2-2.3,2.2V270h-2.7v17.1h2.9v-9.7c0-1.7,0.4-3,1.3-3.9c0.9-0.9,2.1-1.4,3.7-1.4c1.3,0,2.1,0.3,2.6,1
		c0.5,0.6,0.8,1.8,0.8,3.5v10.5h2.9v-10.3v-0.8c0-1.2-0.1-2.1-0.2-2.6C1483.2,272.8,1483,272.4,1482.8,271.9z"/>
	<path class="st0" d="M1458.2,269.5c-2.4,0-4.3,0.8-5.6,2.5s-2,3.9-2,6.8c0,2.8,0.7,4.9,2.1,6.5c1.4,1.6,3.2,2.4,5.6,2.4
		c2,0,3.7-0.5,5-1.6c1.3-1.1,2.2-2.6,2.5-4.4h-2.8c-0.2,1.1-0.7,2-1.5,2.6c-0.8,0.6-1.7,0.9-2.9,0.9c-1.5,0-2.7-0.5-3.6-1.5
		c-0.9-1-1.3-2.4-1.3-4.2h12.3c0-0.2,0-0.3,0-0.5c0-0.2,0-0.4,0-0.8c0-2.8-0.7-4.9-2-6.4C1462.6,270.2,1460.7,269.5,1458.2,269.5z
		 M1453.6,277c0.1-1.6,0.6-2.9,1.4-3.7c0.8-0.8,1.9-1.3,3.3-1.3c1.5,0,2.6,0.4,3.4,1.3c0.8,0.9,1.2,2.1,1.2,3.7H1453.6z"/>
	<path class="st0" d="M1444.2,272.2c-0.7-0.9-1.5-1.6-2.4-2.1c-0.8-0.4-1.8-0.7-3-0.7c-2.3,0-4.2,0.8-5.6,2.5
		c-1.4,1.6-2.1,3.8-2.1,6.6c0,2.8,0.7,5,2.1,6.6c1.4,1.7,3.3,2.5,5.6,2.5c1.2,0,2.2-0.2,3.1-0.7c0.9-0.4,1.7-1.1,2.4-2v2.3
		c0,1.6-0.4,2.7-1.2,3.4c-0.8,0.7-2.1,1-3.9,1c-1.5,0-2.6-0.2-3.4-0.7c-0.7-0.4-1.1-1.1-1.1-2v-0.1h-2.8v0.1c0,1.6,0.6,2.8,1.9,3.7
		c1.3,0.9,3.1,1.3,5.3,1.3c2.8,0,4.8-0.6,6.1-1.8c1.2-1.2,1.9-3.1,1.9-5.7V270h-2.8V272.2z M1443,283.5c-0.8,1-2.1,1.6-3.9,1.6
		c-1.6,0-2.8-0.6-3.7-1.7c-0.9-1.1-1.3-2.7-1.3-4.8c0-2.1,0.4-3.7,1.3-4.8s2.1-1.7,3.7-1.7c1.7,0,3,0.6,3.8,1.7
		c0.9,1.1,1.3,2.8,1.3,5C1444.3,280.9,1443.9,282.5,1443,283.5z"/>
	<path class="st0" d="M1417.5,263.6l-8.7,23.5h3.3l2.5-7h9.2l2.5,7h3.5l-8.8-23.5H1417.5z M1415.6,277.4l3.7-10.4l3.6,10.4H1415.6z"
		/>
	<path class="st0" d="M1397.1,271.9c-0.5-0.8-1.2-1.4-2-1.7c-0.9-0.4-2-0.6-3.3-0.6c-1.2,0-2.3,0.2-3.2,0.7
		c-0.9,0.5-1.6,1.2-2.2,2.1v-8.8h-2.9v23.5h2.9V277c0-1.5,0.4-2.7,1.4-3.5c0.9-0.9,2.2-1.3,3.7-1.3c1.2,0,2.1,0.3,2.6,1
		c0.5,0.6,0.8,1.8,0.8,3.5v10.5h2.9v-10.3v-0.8c0-1.2-0.1-2.1-0.2-2.6C1397.5,272.8,1397.3,272.4,1397.1,271.9z"/>
	<path class="st0" d="M1376.3,284c-0.8,0.7-1.9,1-3.2,1c-1.5,0-2.6-0.6-3.5-1.7c-0.8-1.1-1.2-2.7-1.2-4.8c0-2.1,0.4-3.7,1.3-4.8
		c0.8-1.1,2.1-1.7,3.6-1.7c1.3,0,2.4,0.3,3.1,1c0.8,0.6,1.2,1.5,1.3,2.7h2.8c-0.1-1.9-0.8-3.4-2.1-4.5c-1.3-1.1-3-1.7-5.2-1.7
		c-2.4,0-4.3,0.8-5.7,2.4c-1.4,1.6-2.1,3.9-2.1,6.7c0,2.8,0.7,5,2,6.6c1.3,1.6,3.2,2.4,5.5,2.4c2.2,0,4-0.6,5.4-1.8
		c1.3-1.2,2.1-2.8,2.2-4.9h-2.8C1377.7,282.3,1377.2,283.3,1376.3,284z"/>
	<path class="st0" d="M1363.1,269.7c-1.1,0-2.1,0.3-2.9,0.9c-0.8,0.6-1.4,1.4-1.8,2.6V270h-2.8v17.1h2.9v-9.5c0-1.6,0.4-2.8,1.2-3.6
		c0.8-0.8,2-1.3,3.5-1.3c0.2,0,0.3,0,0.4,0c0.1,0,0.2,0,0.2,0v-3c-0.1,0-0.2,0-0.3,0C1363.4,269.7,1363.3,269.7,1363.1,269.7z"/>
	<path class="st0" d="M1352.1,285.1c-0.4,0-0.7-0.1-0.9-0.3c-0.2-0.2-0.2-0.7-0.2-1.4v-8.5c0-1.8-0.5-3.2-1.6-4
		c-1.1-0.9-2.8-1.3-5-1.3c-2.1,0-3.8,0.5-5,1.5c-1.2,1-1.8,2.4-1.8,4.1v0.1h2.7c0-1,0.3-1.8,1-2.4c0.7-0.5,1.7-0.8,3-0.8
		c1.3,0,2.2,0.2,2.9,0.7c0.6,0.4,1,1.1,1,2c0,0.7-0.1,1.1-0.2,1.4c-0.1,0.2-0.3,0.4-0.6,0.5c-0.3,0.1-1.2,0.3-2.7,0.4
		c-0.8,0.1-1.5,0.2-2,0.2c-2,0.3-3.4,0.8-4.4,1.7c-1,0.9-1.4,2.1-1.4,3.7c0,1.6,0.5,2.9,1.5,3.8c1,0.9,2.3,1.4,4.1,1.4
		c1.1,0,2.2-0.2,3.2-0.7c1-0.5,2-1.2,2.9-2.1v0.1c0,0.8,0.2,1.5,0.7,1.9c0.5,0.4,1.2,0.6,2.2,0.6c0.2,0,0.5,0,0.7-0.1
		c0.3,0,0.6-0.1,0.9-0.2V285c-0.2,0-0.3,0.1-0.5,0.1C1352.3,285.1,1352.2,285.1,1352.1,285.1z M1348.1,281c0,1.2-0.5,2.2-1.5,3
		c-1,0.8-2.2,1.2-3.8,1.2c-1,0-1.8-0.2-2.3-0.7c-0.5-0.5-0.8-1.1-0.8-2c0-0.8,0.2-1.5,0.7-1.9c0.4-0.4,1.2-0.8,2.2-0.9
		c0.3-0.1,0.8-0.1,1.5-0.2c1.9-0.2,3.2-0.6,3.9-1V281z"/>
	<path class="st0" d="M1326.8,269.5c-2.4,0-4.3,0.8-5.6,2.5s-2,3.9-2,6.8c0,2.8,0.7,4.9,2.1,6.5c1.4,1.6,3.2,2.4,5.6,2.4
		c2,0,3.7-0.5,5-1.6c1.3-1.1,2.2-2.6,2.5-4.4h-2.8c-0.2,1.1-0.7,2-1.5,2.6c-0.8,0.6-1.7,0.9-2.9,0.9c-1.5,0-2.7-0.5-3.6-1.5
		c-0.9-1-1.3-2.4-1.3-4.2h12.3c0-0.2,0-0.3,0-0.5c0-0.2,0-0.4,0-0.8c0-2.8-0.7-4.9-2-6.4C1331.2,270.2,1329.2,269.5,1326.8,269.5z
		 M1322.1,277c0.1-1.6,0.6-2.9,1.4-3.7c0.8-0.8,1.9-1.3,3.3-1.3c1.5,0,2.6,0.4,3.4,1.3c0.8,0.9,1.2,2.1,1.2,3.7H1322.1z"/>
	<path class="st0" d="M1311.3,277.1l-2.8-0.7c-1-0.2-1.7-0.5-2.1-0.8c-0.4-0.3-0.6-0.8-0.6-1.3c0-0.8,0.3-1.4,0.9-1.8
		c0.6-0.4,1.5-0.6,2.7-0.6c1.2,0,2.1,0.2,2.7,0.7c0.7,0.5,1,1.2,1.1,2.1h2.8v-0.1c0-1.6-0.6-2.9-1.8-3.8c-1.2-0.9-2.8-1.4-4.8-1.4
		c-2,0-3.6,0.4-4.7,1.3c-1.1,0.9-1.7,2.1-1.7,3.6c0,1.3,0.3,2.4,1.1,3.1c0.7,0.7,2,1.3,3.8,1.7l3.2,0.8c1,0.2,1.7,0.5,2.1,0.9
		c0.4,0.3,0.5,0.8,0.5,1.4c0,0.8-0.4,1.5-1.1,2c-0.7,0.5-1.7,0.7-2.9,0.7c-1.3,0-2.4-0.3-3.1-0.9c-0.7-0.6-1.1-1.5-1.2-2.6h-2.8
		c0,2,0.6,3.5,1.8,4.5c1.2,1,2.9,1.6,5.1,1.6c2.2,0,4-0.5,5.2-1.5c1.2-1,1.9-2.4,1.9-4.1c0-1.3-0.4-2.4-1.1-3.1
		C1314.7,278.2,1313.3,277.6,1311.3,277.1z"/>
	<path class="st0" d="M1292.7,269.5c-2.4,0-4.3,0.8-5.6,2.5s-2,3.9-2,6.8c0,2.8,0.7,4.9,2.1,6.5c1.4,1.6,3.2,2.4,5.6,2.4
		c2,0,3.7-0.5,5-1.6c1.3-1.1,2.2-2.6,2.5-4.4h-2.8c-0.2,1.1-0.7,2-1.5,2.6c-0.8,0.6-1.7,0.9-2.9,0.9c-1.5,0-2.7-0.5-3.6-1.5
		c-0.9-1-1.3-2.4-1.3-4.2h12.3c0-0.2,0-0.3,0-0.5c0-0.2,0-0.4,0-0.8c0-2.8-0.7-4.9-2-6.4C1297.1,270.2,1295.2,269.5,1292.7,269.5z
		 M1288.1,277c0.1-1.6,0.6-2.9,1.4-3.7c0.8-0.8,1.9-1.3,3.3-1.3c1.5,0,2.6,0.4,3.4,1.3c0.8,0.9,1.2,2.1,1.2,3.7H1288.1z"/>
	<path class="st0" d="M1281.8,285.6c-0.2-0.4-0.3-1-0.3-1.9l-0.3-3.9c-0.1-1.4-0.3-2.5-0.7-3.1c-0.4-0.6-1-1-1.9-1.3
		c1.1-0.5,1.9-1.2,2.4-2.1c0.5-0.9,0.8-2,0.8-3.3c0-1.3-0.3-2.4-0.8-3.4c-0.5-1-1.3-1.7-2.2-2.3c-0.6-0.3-1.2-0.5-1.9-0.6
		c-0.7-0.1-1.8-0.2-3.3-0.2h-9.1v23.5h3.2v-10.1h5.2c2.3,0,3.7,0.2,4.2,0.7c0.6,0.5,0.9,1.5,1,3.1l0.2,3.1v0.1
		c0.1,1.6,0.3,2.7,0.6,3.1h3.7v-0.7C1282.2,286.3,1282,286,1281.8,285.6z M1277.3,273.4c-0.8,0.6-2.2,1-4.2,1h-5.5v-8h5.5
		c2.1,0,3.5,0.3,4.2,0.9c0.8,0.6,1.2,1.6,1.2,3C1278.5,271.7,1278.1,272.8,1277.3,273.4z"/>
	<path class="st0" d="M1249.8,278.9c0.3-1,0.5-2.1,0.5-3.3h-2.8c-0.1,0.8-0.2,1.6-0.3,2.2c-0.2,0.6-0.4,1.2-0.6,1.7l-4.4-5.4
		c1.5-0.9,2.6-1.8,3.3-2.8c0.7-1,1.1-2.1,1.1-3.4c0-1.5-0.5-2.7-1.5-3.6c-1-0.9-2.4-1.4-4.1-1.4c-1.7,0-3,0.5-4,1.5
		c-1.1,1-1.6,2.2-1.6,3.8c0,0.9,0.2,1.8,0.6,2.6c0.4,0.9,1.1,1.8,2,2.7c-2,1.1-3.4,2.2-4.2,3.3c-0.8,1.1-1.3,2.5-1.3,3.9
		c0,2,0.7,3.6,2,4.9c1.3,1.3,3,1.9,5.1,1.9c1.4,0,2.8-0.3,4-0.8c1.2-0.6,2.3-1.4,3.2-2.6l2.3,2.8h3.9l-4.4-5.3
		C1249.1,280.9,1249.5,279.9,1249.8,278.9z M1238.9,266.1c0.5-0.5,1.3-0.8,2.2-0.8c0.8,0,1.5,0.3,2,0.8c0.5,0.5,0.8,1.2,0.8,2
		c0,0.8-0.3,1.6-0.8,2.3c-0.5,0.7-1.3,1.4-2.4,2.1c-0.9-0.9-1.5-1.7-1.9-2.4c-0.4-0.7-0.6-1.4-0.6-2
		C1238.1,267.3,1238.4,266.6,1238.9,266.1z M1242.6,284.3c-0.9,0.5-1.8,0.7-2.7,0.7c-1.3,0-2.3-0.4-3.1-1.2c-0.8-0.8-1.2-1.8-1.2-3
		c0-1,0.3-1.9,0.9-2.7c0.6-0.8,1.7-1.6,3.1-2.5l5.5,6.7C1244.3,283.1,1243.5,283.8,1242.6,284.3z"/>
	<path class="st0" d="M1218.9,271.9c-0.5-0.8-1.2-1.4-2-1.7c-0.9-0.4-2-0.6-3.2-0.6c-1.2,0-2.2,0.2-3.1,0.7
		c-0.9,0.5-1.7,1.2-2.3,2.2V270h-2.8v17.1h2.9v-9.7c0-1.7,0.4-3,1.3-3.9c0.9-0.9,2.1-1.4,3.7-1.4c1.3,0,2.1,0.3,2.6,1
		c0.5,0.6,0.8,1.8,0.8,3.5v10.5h2.9v-10.3v-0.8c0-1.2-0.1-2.1-0.2-2.6C1219.3,272.8,1219.1,272.4,1218.9,271.9z"/>
	<path class="st0" d="M1193.7,269.5c-2.6,0-4.6,0.8-6,2.4c-1.4,1.6-2.1,3.8-2.1,6.7c0,2.9,0.7,5.1,2.2,6.7c1.4,1.6,3.4,2.4,6,2.4
		c2.6,0,4.6-0.8,6-2.4c1.4-1.6,2.2-3.8,2.2-6.7c0-2.9-0.7-5.1-2.2-6.7C1198.3,270.3,1196.3,269.5,1193.7,269.5z M1197.6,283.4
		c-0.9,1.1-2.2,1.7-3.9,1.7c-1.7,0-3-0.6-3.9-1.7c-0.9-1.1-1.4-2.7-1.4-4.9c0-2.1,0.5-3.7,1.4-4.8c0.9-1.1,2.2-1.7,3.9-1.7
		c1.7,0,3,0.6,3.9,1.7c0.9,1.1,1.3,2.7,1.3,4.8C1198.9,280.7,1198.4,282.3,1197.6,283.4z"/>
	<rect x="1179.1" y="263.6" class="st0" width="2.9" height="3.3"/>
	<rect x="1179.1" y="270" class="st0" width="2.9" height="17.1"/>
	<path class="st0" d="M1173.3,265.3h-2.9v4.8h-2.6v2.3h2.6v11.5c0,1.3,0.3,2.3,0.8,2.8s1.5,0.8,2.8,0.8c0.3,0,0.6,0,1-0.1
		c0.4,0,0.8-0.1,1.3-0.2v-2.4c-0.4,0-0.7,0.1-0.9,0.1c-0.2,0-0.4,0-0.6,0c-0.6,0-1-0.1-1.2-0.4c-0.2-0.3-0.3-0.8-0.3-1.5v-10.5h3.1
		V270h-3.1V265.3z"/>
	<path class="st0" d="M1166.5,285.1c-0.4,0-0.7-0.1-0.9-0.3c-0.2-0.2-0.2-0.7-0.2-1.4v-8.5c0-1.8-0.5-3.2-1.6-4
		c-1.1-0.9-2.8-1.3-5-1.3c-2.1,0-3.8,0.5-5,1.5c-1.2,1-1.8,2.4-1.8,4.1v0.1h2.7c0-1,0.3-1.8,1-2.4c0.7-0.5,1.7-0.8,3-0.8
		c1.3,0,2.2,0.2,2.9,0.7c0.6,0.4,0.9,1.1,0.9,2c0,0.7-0.1,1.1-0.2,1.4c-0.1,0.2-0.3,0.4-0.7,0.5c-0.3,0.1-1.2,0.3-2.7,0.4
		c-0.8,0.1-1.5,0.2-2,0.2c-2,0.3-3.4,0.8-4.4,1.7c-1,0.9-1.4,2.1-1.4,3.7c0,1.6,0.5,2.9,1.5,3.8c1,0.9,2.3,1.4,4.1,1.4
		c1.1,0,2.2-0.2,3.2-0.7c1-0.5,2-1.2,2.8-2.1v0.1c0,0.8,0.2,1.5,0.7,1.9c0.5,0.4,1.2,0.6,2.2,0.6c0.2,0,0.5,0,0.7-0.1
		c0.3,0,0.6-0.1,0.9-0.2V285c-0.2,0-0.3,0.1-0.4,0.1C1166.7,285.1,1166.6,285.1,1166.5,285.1z M1162.5,281c0,1.2-0.5,2.2-1.5,3
		s-2.2,1.2-3.8,1.2c-1,0-1.7-0.2-2.3-0.7c-0.5-0.5-0.8-1.1-0.8-2c0-0.8,0.2-1.5,0.7-1.9c0.5-0.4,1.2-0.8,2.2-0.9
		c0.3-0.1,0.8-0.1,1.5-0.2c1.9-0.2,3.2-0.6,3.9-1V281z"/>
	<path class="st0" d="M1148.8,269.7c-1.1,0-2.1,0.3-2.9,0.9c-0.8,0.6-1.4,1.4-1.8,2.6V270h-2.8v17.1h2.9v-9.5c0-1.6,0.4-2.8,1.2-3.6
		c0.8-0.8,2-1.3,3.5-1.3c0.2,0,0.3,0,0.4,0c0.1,0,0.2,0,0.2,0v-3c-0.1,0-0.2,0-0.3,0C1149.2,269.7,1149.1,269.7,1148.8,269.7z"/>
	<path class="st0" d="M1129.7,269.5c-2.6,0-4.6,0.8-6,2.4c-1.4,1.6-2.1,3.8-2.1,6.7c0,2.9,0.7,5.1,2.2,6.7c1.4,1.6,3.4,2.4,6,2.4
		c2.6,0,4.6-0.8,6-2.4c1.4-1.6,2.2-3.8,2.2-6.7c0-2.9-0.7-5.1-2.2-6.7C1134.3,270.3,1132.2,269.5,1129.7,269.5z M1133.6,283.4
		c-0.9,1.1-2.2,1.7-3.9,1.7c-1.7,0-3-0.6-3.9-1.7c-0.9-1.1-1.4-2.7-1.4-4.9c0-2.1,0.5-3.7,1.4-4.8c0.9-1.1,2.2-1.7,3.9-1.7
		c1.7,0,3,0.6,3.9,1.7c0.9,1.1,1.3,2.7,1.3,4.8C1134.9,280.7,1134.4,282.3,1133.6,283.4z"/>
	<rect x="1115" y="263.6" class="st0" width="2.9" height="23.5"/>
	<path class="st0" d="M1104,269.5c-1.2,0-2.3,0.2-3.2,0.7c-0.9,0.5-1.7,1.2-2.4,2.2V270h-2.8V294h2.8V285c0.7,0.9,1.4,1.5,2.4,2
		c0.9,0.4,2,0.6,3.2,0.6c2.3,0,4.1-0.8,5.5-2.5c1.4-1.6,2.1-3.9,2.1-6.6c0-2.8-0.7-4.9-2-6.6C1108.1,270.3,1106.3,269.5,1104,269.5z
		 M1107.1,283.3c-0.9,1.2-2.1,1.8-3.7,1.8c-1.7,0-3-0.5-3.8-1.6c-0.8-1.1-1.3-2.7-1.3-4.8c0-2.1,0.4-3.8,1.3-4.9
		c0.9-1.1,2.1-1.7,3.7-1.7c1.6,0,2.8,0.6,3.7,1.7c0.9,1.1,1.4,2.6,1.4,4.6C1108.4,280.5,1108,282.2,1107.1,283.3z"/>
	<polygon class="st0" points="1093,270 1089.7,270 1085.6,276.2 1081.3,270 1078,270 1083.7,278.3 1077.7,287.1 1081.1,287.1 
		1085.4,280.5 1089.9,287.1 1093.3,287.1 1087.2,278.3 	"/>
	<polygon class="st0" points="1062.5,276.3 1075,276.3 1075,273.6 1062.5,273.6 1062.5,266.6 1076.1,266.6 1076.1,263.6 
		1059.3,263.6 1059.3,287.1 1076.3,287.1 1076.3,284.2 1062.5,284.2 	"/>
	<path class="st0" d="M1039,269.5c-2.4,0-4.3,0.8-5.6,2.5s-2,3.9-2,6.8c0,2.8,0.7,4.9,2.1,6.5c1.4,1.6,3.2,2.4,5.6,2.4
		c2,0,3.7-0.5,5-1.6c1.3-1.1,2.1-2.6,2.4-4.4h-2.8c-0.2,1.1-0.7,2-1.5,2.6c-0.8,0.6-1.7,0.9-2.9,0.9c-1.5,0-2.7-0.5-3.6-1.5
		c-0.9-1-1.3-2.4-1.3-4.2h12.3c0-0.2,0-0.3,0-0.5c0-0.2,0-0.4,0-0.8c0-2.8-0.7-4.9-2-6.4C1043.4,270.2,1041.5,269.5,1039,269.5z
		 M1034.4,277c0.1-1.6,0.6-2.9,1.4-3.7c0.8-0.8,1.9-1.3,3.3-1.3c1.5,0,2.6,0.4,3.4,1.3c0.8,0.9,1.2,2.1,1.2,3.7H1034.4z"/>
	<path class="st0" d="M1025,284c-0.8,0.7-1.9,1-3.2,1c-1.5,0-2.6-0.6-3.5-1.7c-0.8-1.1-1.2-2.7-1.2-4.8c0-2.1,0.4-3.7,1.3-4.8
		c0.8-1.1,2-1.7,3.6-1.7c1.3,0,2.3,0.3,3.1,1c0.8,0.6,1.2,1.5,1.3,2.7h2.8c-0.1-1.9-0.8-3.4-2.1-4.5c-1.3-1.1-3-1.7-5.2-1.7
		c-2.4,0-4.3,0.8-5.7,2.4c-1.4,1.6-2.1,3.9-2.1,6.7c0,2.8,0.7,5,2,6.6c1.3,1.6,3.2,2.4,5.5,2.4c2.2,0,4-0.6,5.4-1.8
		c1.3-1.2,2.1-2.8,2.2-4.9h-2.8C1026.3,282.3,1025.8,283.3,1025,284z"/>
	<path class="st0" d="M1011.6,285.1c-0.4,0-0.7-0.1-0.9-0.3c-0.2-0.2-0.2-0.7-0.2-1.4v-8.5c0-1.8-0.5-3.2-1.6-4
		c-1.1-0.9-2.8-1.3-5-1.3c-2.1,0-3.8,0.5-5,1.5c-1.2,1-1.8,2.4-1.8,4.1v0.1h2.7c0-1,0.3-1.8,1-2.4c0.7-0.5,1.7-0.8,3-0.8
		c1.3,0,2.2,0.2,2.9,0.7c0.6,0.4,0.9,1.1,0.9,2c0,0.7,0,1.1-0.2,1.4c-0.1,0.2-0.3,0.4-0.7,0.5c-0.3,0.1-1.2,0.3-2.7,0.4
		c-0.8,0.1-1.5,0.2-2,0.2c-2,0.3-3.4,0.8-4.4,1.7c-1,0.9-1.4,2.1-1.4,3.7c0,1.6,0.5,2.9,1.5,3.8c1,0.9,2.3,1.4,4.1,1.4
		c1.1,0,2.2-0.2,3.2-0.7c1-0.5,2-1.2,2.9-2.1v0.1c0,0.8,0.2,1.5,0.7,1.9c0.5,0.4,1.2,0.6,2.2,0.6c0.2,0,0.5,0,0.7-0.1
		c0.3,0,0.6-0.1,0.9-0.2V285c-0.2,0-0.3,0.1-0.5,0.1C1011.8,285.1,1011.7,285.1,1011.6,285.1z M1007.6,281c0,1.2-0.5,2.2-1.5,3
		c-1,0.8-2.3,1.2-3.8,1.2c-1,0-1.8-0.2-2.3-0.7c-0.5-0.5-0.8-1.1-0.8-2c0-0.8,0.2-1.5,0.7-1.9c0.5-0.4,1.2-0.8,2.2-0.9
		c0.3-0.1,0.8-0.1,1.5-0.2c1.9-0.2,3.2-0.6,3.9-1V281z"/>
	<path class="st0" d="M986.3,269.5c-1.2,0-2.3,0.2-3.2,0.7c-0.9,0.5-1.7,1.2-2.4,2.2V270h-2.8V294h2.8V285c0.7,0.9,1.5,1.5,2.4,2
		c0.9,0.4,2,0.6,3.2,0.6c2.3,0,4.1-0.8,5.5-2.5c1.4-1.6,2.1-3.9,2.1-6.6c0-2.8-0.7-4.9-2-6.6C990.4,270.3,988.6,269.5,986.3,269.5z
		 M989.4,283.3c-0.9,1.2-2.1,1.8-3.7,1.8c-1.7,0-3-0.5-3.8-1.6c-0.8-1.1-1.3-2.7-1.3-4.8c0-2.1,0.4-3.8,1.3-4.9
		c0.9-1.1,2.1-1.7,3.7-1.7c1.6,0,2.8,0.6,3.7,1.7c0.9,1.1,1.4,2.6,1.4,4.6C990.8,280.5,990.3,282.2,989.4,283.3z"/>
	<path class="st0" d="M972.3,275.9c-0.8-0.7-2.5-1.4-5-2l-0.3-0.1c-0.3-0.1-0.7-0.2-1.3-0.3c-3.9-0.9-5.8-2.2-5.8-4.1
		c0-1.1,0.5-2,1.4-2.7c0.9-0.7,2.2-1,3.7-1c1.7,0,3,0.4,3.9,1.3c1,0.8,1.5,2,1.6,3.6l3,0c0-2.3-0.8-4.2-2.3-5.5
		c-1.5-1.3-3.5-2-6.1-2c-2.5,0-4.6,0.6-6.1,1.9c-1.5,1.3-2.3,2.9-2.3,5c0,1.7,0.5,3,1.5,4c1,0.9,3.1,1.8,6.3,2.5
		c0.1,0,0.3,0.1,0.5,0.1c3.9,0.9,5.9,2.3,5.9,4.1c0,1.3-0.5,2.4-1.6,3.1c-1,0.8-2.5,1.1-4.3,1.1c-1.8,0-3.3-0.5-4.4-1.5
		c-1.1-1-1.7-2.4-1.7-4.1H956c0.1,2.7,1,4.8,2.6,6.2c1.6,1.4,3.8,2.2,6.7,2.2c2.8,0,5-0.7,6.6-2c1.6-1.3,2.4-3.1,2.4-5.4
		c0-0.9-0.2-1.8-0.5-2.5C973.4,277,972.9,276.4,972.3,275.9z"/>
</g>
</svg>
