<?xml version="1.0" encoding="utf-8"?>
<!-- Generator: Adobe Illustrator 28.1.0, SVG Export Plug-In . SVG Version: 6.00 Build 0)  -->
<svg version="1.1" id="Layer_1" xmlns="http://www.w3.org/2000/svg" xmlns:xlink="http://www.w3.org/1999/xlink" x="0px" y="0px"
	 viewBox="0 0 1005 1031" style="enable-background:new 0 0 1005 1031;" xml:space="preserve">
<style type="text/css">
	.st0{fill:#FFFFFF;}
</style>
<g>
	<path class="st0" d="M365.3,149.8l-0.9,0.3l9,1.8c20.1,4.1,40.6,0.1,57.7-11.2c23.9-15.7,43.9-21.7,61.2-18.2
		c17.3,3.5,33.4,16.9,49.2,40.9l0.8,1.1h0c7.6,11.2,18.1,20.1,30.2,25.9c25.1,12.7,40,27,45.5,43.5c5.6,16.7,2,37.4-10.8,63
		c-9.2,18.4-10.7,39.2-4.2,58.5c6.5,19.4,20.1,35.1,38.5,44.3c10.8,5.4,22.5,8.2,34.3,8.2c8.1,0,16.3-1.3,24.2-4
		c40.1-13.3,61.9-56.8,48.6-97c-6.3-18.9-19.4-34.3-37.1-43.6l-1.4-0.7c-25.7-12.9-40.9-27.2-46.4-44c-5.6-16.7-2-37.4,10.8-63
		c9.2-18.3,10.7-39.1,4.2-58.5c-5.3-16-15.5-29.5-29.5-39c-0.6-0.4-1.3-0.8-1.9-1.3c-0.1-0.1-0.2-0.2-0.4-0.2l-0.3-0.2
		c-7.9-5-16.4-8.4-25.5-10.3c-18.6-3.8-37.5-0.7-53.7,8.8v-0.2l-3.9,2.6c-24,15.8-44,21.8-61.3,18.2c-17.3-3.5-33.4-16.9-49.2-40.9
		c-11.3-17.1-28.6-28.8-48.6-32.9c-20-4.1-40.5-0.2-57.6,11.1c-17.1,11.3-28.8,28.5-32.9,48.6c-4.1,20-0.2,40.5,11.1,57.6
		C334.6,133.7,348.8,144.5,365.3,149.8z"/>
	<path class="st0" d="M1004.2,444.3l-0.3-2.2h0c-2.6-18.5-11.8-35.2-26-47.4l0.1-0.1l-2.2-1.7c-22.5-17.9-34.3-35.1-36.3-52.7
		c-2-17.5,5.8-37,23.7-59.4c12.8-16.1,18.5-36.1,16.2-56.4c-4.7-42-42.8-72.3-84.8-67.6c-42,4.7-72.3,42.8-67.6,84.8
		c2.3,20.4,12.5,38.6,28.5,51.4c22.4,17.9,34.2,35.1,36.2,52.6c2,17.5-5.7,37-23.7,59.4l-0.5,0.7v0c-8.4,10.8-13.8,23.6-15.5,37.1
		c-4.4,27.8-13.3,46.4-27.3,56.7c-14.2,10.5-34.9,13.5-63.3,9.2c-20.3-3-40.5,2-57,14.1c-34,25.1-41.2,73.2-16.1,107.2l0.4,0.5l0,0
		c12.1,16.2,29.8,26.7,49.9,29.8c3.9,0.6,7.8,0.9,11.6,0.9c16.3,0,32-5.2,45.3-15c15.9-11.7,26.4-28.8,29.9-48.2h0.1l0.3-2.1
		c4.3-28.4,13.2-47.3,27.4-57.8c14.2-10.5,34.9-13.5,63.3-9.2c20.3,3,40.5-2,56.9-14.1c13.5-10,23.2-23.8,28-40
		c0.2-0.6,0.4-1.3,0.5-1.9l0.3-1.2C1004.6,462.8,1005.2,453.6,1004.2,444.3z"/>
	<path class="st0" d="M941.1,702.1c-18.5-6.7-38.4-6.1-56.4,1.7l0-0.1l-2.2,1c-18.6,8.7-32.6,24.2-39.6,43.5
		c-9.7,26.9-22.2,43.6-38.2,51.1c-16,7.5-36.9,6.4-63.9-3.4l-3.4-1.2v0.1c-12.2-3.8-25.1-4.5-37.6-2c-27.7,4.8-48.2,2.3-62.4-7.7
		c-14.5-10.1-24-28.7-29-57c-3.6-20.2-14.9-37.8-31.6-49.5c-34.7-24.2-82.6-15.6-106.8,19.1c-24.2,34.7-15.6,82.6,19,106.8
		c16,11.1,35.2,15.7,54.4,13v0.1l2.9-0.5c28.3-5,49.1-2.6,63.5,7.5c14.5,10.1,24,28.7,29,57c3.6,20.2,14.8,37.7,31.6,49.4
		c13,9,28,13.7,43.7,13.7c1.1,0,2.1,0,3.2-0.1c0.8,0,1.6-0.1,2.4-0.1c0.3,0,0.6,0,0.8-0.1c9.2-0.7,18.1-3.1,26.6-7
		c17.3-8.2,30.7-22.2,38.1-39.7l0.1,0.1l1.4-3.8c9.8-27,22.3-43.8,38.3-51.3c16-7.5,36.9-6.4,63.9,3.4c19.3,7,40.1,6,58.6-2.7
		c18.5-8.7,32.6-24.1,39.5-43.4c7-19.3,6-40.1-2.7-58.6C975.8,723.1,960.4,709.1,941.1,702.1z"/>
	<path class="st0" d="M407.3,877.6L407.3,877.6c-28.6-0.6-48.4-7-60.7-19.7c-12.2-12.7-17.9-32.8-17.4-61.6l0-2.5h0
		c-0.2-13.1-3.7-26-10.2-37.3c-13.5-24.7-17.7-44.8-12.8-61.5c4.9-17,19.5-31.9,44.6-45.8c18-9.9,31-26.2,36.6-45.9
		c11.7-40.6-11.8-83.2-52.4-94.9c-19.7-5.7-40.4-3.3-58.3,6.6c-17.9,9.9-31,26.2-36.6,45.9c-5.3,18.3-3.6,37.6,4.7,54.6h-0.2l2,3.7
		c13.9,25.2,18.3,45.6,13.4,62.6c-4.9,17-19.5,32-44.6,45.8c-17.9,9.9-30.9,26.2-36.6,45.8c-4.7,16.2-3.9,33.1,2.2,48.8
		c0.3,0.8,0.6,1.5,0.9,2.2c0.1,0.3,0.2,0.5,0.3,0.7c3.6,8.5,8.7,16.2,15.2,22.9l0.8,0.8h0c13.5,13.7,31.4,21.6,50.6,22.6v0.1l2.5,0
		c28.7,0.5,48.6,7,60.9,19.7c12.2,12.7,17.9,32.8,17.4,61.5c-0.4,20.5,7.2,39.9,21.4,54.6c14.2,14.7,33.3,23.1,53.8,23.5
		c0.5,0,1,0,1.5,0c19.9,0,38.8-7.6,53.1-21.4c14.7-14.2,23.1-33.3,23.5-53.8c0.4-20.5-7.2-39.9-21.4-54.6
		C447,886.3,427.9,878,407.3,877.6z"/>
	<path class="st0" d="M205.8,401.4l0.6-0.2l0.1-0.1c13.2-3.9,25.2-11.2,34.5-21.2c19.7-20.1,37.7-30,55.1-30.2
		c17.6-0.2,36.2,9.3,56.9,29.3l0.7,0.7h0c14.6,13.8,33.7,21.3,53.8,21c42.3-0.7,76.1-35.6,75.5-77.8c-0.7-42.3-35.6-76.1-77.8-75.5
		c-19.6,0.3-38,7.9-52.1,21.5l-0.1-0.1l-1.8,1.8c-20,20.6-38.3,30.8-55.9,31c-17.6,0.2-36.2-9.3-56.9-29.3
		c-14.7-14.3-34.1-22-54.5-21.6c-16.9,0.3-32.8,5.9-46.1,16.3c-0.4,0.3-0.8,0.6-1.2,0.9l-0.5,0.4c-0.1,0.1-0.3,0.2-0.5,0.4l-0.3,0.3
		c-7.1,6-13,13.1-17.5,21.2l-2,3.7h0.1c-7.8,16-9.8,34-5.6,51.4h-0.1l0.9,3.2c7.9,27.6,7.5,48.5-1.1,64
		c-8.6,15.4-26.2,26.7-53.8,34.6c-19.7,5.6-36.1,18.6-46,36.4c-20.6,36.9-7.3,83.7,29.7,104.3c11.8,6.6,24.6,9.7,37.2,9.7
		c26.9,0,53.1-14.2,67.1-39.3c10-17.9,12.4-38.7,6.7-58.4c-7.8-27.5-7.4-48.4,1.1-63.8C160.6,420.6,178.2,409.2,205.8,401.4z"/>
</g>
</svg>
