<?xml version="1.0" encoding="utf-8"?>
<!-- Generator: Adobe Illustrator 28.1.0, SVG Export Plug-In . SVG Version: 6.00 Build 0)  -->
<svg version="1.1" id="Layer_1" xmlns="http://www.w3.org/2000/svg" xmlns:xlink="http://www.w3.org/1999/xlink" x="0px" y="0px"
	 viewBox="0 0 1520 278" style="enable-background:new 0 0 1520 278;" xml:space="preserve">
<style type="text/css">
	.st0{fill:#262624;}
</style>
<g>
	<path class="st0" d="M568.4,118.3H418.3c-9.2,0-16.7-7.5-16.7-16.8c0-9.3,7.5-16.8,16.7-16.8h201.2V43H418.3
		c-32.2,0-58.3,26.3-58.3,58.5c0,32.3,26.2,58.5,58.3,58.5h150.1c9.2,0,16.7,7.5,16.7,16.8s-7.5,16.8-16.7,16.8H367.2v41.7h201.2
		c32.2,0,58.3-26.3,58.3-58.5S600.6,118.3,568.4,118.3z"/>
	<polygon class="st0" points="568.4,235.4 568.4,235.4 568.4,235.4 	"/>
	<path class="st0" d="M654.3,81.5v115.3c0,21.3,17.2,38.5,38.4,38.5h228.9v-41.7H695.9v-33.6h225.5v-41.7H695.9V84.7h225.7V43H692.7
		C671.5,43,654.3,60.2,654.3,81.5z"/>
	<path class="st0" d="M1480.9,43h-190c-21.2,0-38.4,17.2-38.4,38.5v153.9h41.6v-75.3h183.6v75.3h41.6V81.5
		C1519.2,60.3,1502.1,43,1480.9,43z M1477.7,90.7L1477.7,90.7v27.6h-183.6V84.8h183.6V90.7z"/>
	<polygon class="st0" points="1221.8,235.4 1221.8,235.4 1221.7,235.4 	"/>
	<path class="st0" d="M1221.7,103c0.8-32.9-25.7-60-58.3-60H956.3v41.7h206.7c8.7,0,16.3,6.5,17.2,15.2c0.9,10-6.9,18.4-16.7,18.4
		l-207.2,0v117h41.8v-75.3h146.1l32.1,75.3h45.5l-34.5-80.8C1207.1,145.6,1221.2,126,1221.7,103z"/>
	<path class="st0" d="M98.5,40.6l-0.2,0.1l2.4,0.5c5.4,1.1,10.9,0,15.5-3c6.4-4.2,11.8-5.8,16.5-4.9c4.6,1,9,4.5,13.2,11l0.2,0.3h0
		c2.1,3,4.9,5.4,8.1,7c6.8,3.4,10.8,7.3,12.2,11.7c1.5,4.5,0.5,10.1-2.9,17c-2.5,4.9-2.9,10.5-1.1,15.8c1.7,5.2,5.4,9.5,10.3,11.9
		c2.9,1.5,6.1,2.2,9.2,2.2c2.2,0,4.4-0.4,6.5-1.1c10.8-3.6,16.7-15.3,13.1-26.1c-1.7-5.1-5.2-9.2-10-11.7l-0.4-0.2
		c-6.9-3.5-11-7.3-12.5-11.8c-1.5-4.5-0.5-10.1,2.9-17c2.5-4.9,2.9-10.5,1.1-15.7c-1.4-4.3-4.2-7.9-8-10.5c-0.2-0.1-0.3-0.2-0.5-0.3
		l-0.2-0.1c-2.1-1.3-4.4-2.3-6.9-2.8c-5-1-10.1-0.2-14.5,2.4V15l-1,0.7c-6.5,4.3-11.8,5.9-16.5,4.9c-4.6-1-9-4.6-13.2-11
		c-3-4.6-7.7-7.7-13.1-8.9c-5.4-1.1-10.9,0-15.5,3c-4.6,3-7.7,7.7-8.9,13.1c-1.1,5.4,0,10.9,3,15.5C90.2,36.3,94,39.2,98.5,40.6z"/>
	<path class="st0" d="M270.3,119.2L270.3,119.2c-0.7-5-3.2-9.5-7-12.7l0,0l-0.6-0.5c-6-4.8-9.2-9.4-9.8-14.2
		c-0.5-4.7,1.5-9.9,6.4-16c3.4-4.3,5-9.7,4.4-15.2c-1.3-11.3-11.5-19.5-22.8-18.2c-11.3,1.3-19.5,11.5-18.2,22.8
		c0.6,5.5,3.4,10.4,7.7,13.8c6,4.8,9.2,9.4,9.7,14.1c0.5,4.7-1.5,9.9-6.4,16l-0.1,0.2v0c-2.3,2.9-3.7,6.4-4.2,10
		c-1.2,7.5-3.6,12.5-7.3,15.3c-3.8,2.8-9.4,3.6-17,2.5c-5.5-0.8-10.9,0.5-15.3,3.8c-4.4,3.3-7.3,8.1-8.1,13.5s0.5,10.9,3.8,15.3
		l0.1,0.1l0,0c3.3,4.4,8,7.2,13.4,8c1,0.2,2.1,0.2,3.1,0.2c4.4,0,8.6-1.4,12.2-4c4.3-3.2,7.1-7.7,8-13l0.1-0.6
		c1.1-7.6,3.6-12.7,7.4-15.5c3.8-2.8,9.4-3.6,17-2.5c5.5,0.8,10.9-0.5,15.3-3.8c3.6-2.7,6.2-6.4,7.5-10.8c0.1-0.2,0.1-0.3,0.1-0.5
		l0.1-0.3c0.6-2.4,0.8-4.9,0.5-7.4L270.3,119.2z"/>
	<path class="st0" d="M238.2,189.7L238.2,189.7l-0.6,0.2c-5,2.3-8.8,6.5-10.7,11.7c-2.6,7.2-6,11.7-10.3,13.8
		c-4.3,2-9.9,1.7-17.2-0.9l-0.9-0.3v0c-3.3-1-6.8-1.2-10.1-0.5c-7.5,1.3-13,0.6-16.8-2.1c-3.9-2.7-6.4-7.7-7.8-15.3
		c-1-5.4-4-10.2-8.5-13.3c-9.3-6.5-22.2-4.2-28.7,5.1c-6.5,9.3-4.2,22.2,5.1,28.7c4.3,3,9.5,4.2,14.6,3.5v0l0.8-0.1
		c7.6-1.4,13.2-0.7,17.1,2c3.9,2.7,6.4,7.7,7.8,15.3c1,5.4,4,10.2,8.5,13.3c3.5,2.4,7.5,3.7,11.8,3.7c0.3,0,0.6,0,0.9,0
		c0.2,0,0.3,0,0.5,0l0.1,0c0.1,0,0.2,0,0.2,0c2.5-0.2,4.9-0.8,7.2-1.9c4.7-2.2,8.3-6,10.3-10.7l0,0l0.4-1c2.6-7.3,6-11.8,10.3-13.8
		c4.3-2,9.9-1.7,17.2,0.9c5.2,1.9,10.8,1.6,15.8-0.7c5-2.3,8.8-6.5,10.6-11.7c1.9-5.2,1.6-10.8-0.7-15.8
		C260.3,189.7,248.4,185.3,238.2,189.7z"/>
	<path class="st0" d="M109.8,236.4L109.8,236.4c-7.7-0.1-13-1.9-16.3-5.3c-3.3-3.4-4.8-8.8-4.7-16.6l0-0.7h0c0-3.5-1-7-2.8-10
		c-3.6-6.6-4.7-12.1-3.5-16.6c1.3-4.6,5.2-8.6,12-12.3c4.8-2.7,8.3-7.1,9.9-12.3c3.2-10.9-3.2-22.4-14.1-25.5
		c-5.3-1.5-10.9-0.9-15.7,1.8c-4.8,2.7-8.3,7-9.9,12.3c-1.4,4.9-1,10.1,1.3,14.7h0l0.6,1c3.7,6.8,4.9,12.3,3.6,16.8
		c-1.3,4.6-5.2,8.6-12,12.3c-4.8,2.7-8.3,7.1-9.9,12.3c-1.3,4.4-1.1,8.9,0.6,13.1c0.1,0.2,0.2,0.4,0.2,0.6l0.1,0.2
		c1,2.3,2.4,4.4,4.1,6.2l0.2,0.2h0c3.6,3.7,8.4,5.8,13.6,6.1l0.7,0c7.7,0.1,13.1,1.9,16.4,5.3c3.3,3.4,4.8,8.8,4.7,16.6
		c-0.1,5.5,1.9,10.7,5.8,14.7c3.8,4,9,6.2,14.5,6.3c0.1,0,0.3,0,0.4,0c5.4,0,10.4-2,14.3-5.8c4-3.8,6.2-9,6.3-14.5
		c0.1-5.5-1.9-10.7-5.8-14.7C120.5,238.8,115.3,236.5,109.8,236.4z"/>
	<path class="st0" d="M55.6,108.3l0.1,0l0,0c3.6-1,6.8-3,9.3-5.7c5.3-5.4,10.1-8.1,14.8-8.1c4.8-0.1,9.7,2.5,15.3,7.9l0.2,0.2h0
		c3.9,3.7,9.1,5.7,14.5,5.6c11.4-0.2,20.5-9.6,20.3-20.9c-0.2-11.3-9.4-20.3-20.6-20.3c-0.1,0-0.2,0-0.3,0c-5.3,0.1-10.2,2.1-14,5.8
		l0,0l-0.5,0.5c-5.4,5.5-10.3,8.3-15,8.3c-4.8,0.1-9.7-2.5-15.3-7.9c-4-3.8-9.2-5.9-14.7-5.8c-4.5,0.1-8.8,1.6-12.4,4.4l-0.7,0.5
		c-1.9,1.6-3.5,3.5-4.7,5.7l-0.6,1h0c-2.1,4.3-2.6,9.2-1.5,13.8h0l0.2,0.9c2.1,7.4,2,13.1-0.3,17.2c-2.3,4.1-7,7.2-14.5,9.3
		c-5.3,1.5-9.7,5-12.4,9.8c-5.5,9.9-2,22.5,8,28.1c3.2,1.8,6.6,2.6,10,2.6c7.2,0,14.3-3.8,18.1-10.6c2.7-4.8,3.3-10.4,1.8-15.7
		c-2.1-7.4-2-13,0.3-17.2C43.4,113.5,48.1,110.4,55.6,108.3z"/>
</g>
</svg>
